<?xml version="1.0" encoding="UTF-8"?>
<svg id="logo" xmlns="http://www.w3.org/2000/svg" version="1.1" xmlns:xlink="http://www.w3.org/1999/xlink" viewBox="0 0 142.8 32.3">
  <!-- Generator: Adobe Illustrator 29.2.1, SVG Export Plug-In . SVG Version: 2.1.0 Build 116)  -->
  <defs>
    <style>
      .st0 {
        fill: none;
      }

      .st1 {
        fill: #ffda64;
      }

      .st2 {
        fill: #276db6;
      }
    </style>
  </defs>
  <g id="domain">
    <g>
      <path id="D" class="st2" d="M45.4,24.2V8.1c0-.3.3-.6.6-.6h6.5c2.6,0,4.7.8,6.4,2.5,1.6,1.6,2.5,3.7,2.5,6.1s-.8,4.6-2.5,6.2c-1.7,1.7-3.9,2.5-6.5,2.5h-6.3c-.3,0-.6-.3-.6-.6h-.1ZM52.3,11.1h-2.4c-.3,0-.6.3-.6.6v9c0,.3.3.6.6.6h2.5c1.4,0,2.6-.5,3.5-1.5s1.4-2.2,1.4-3.7-.5-2.7-1.4-3.6c-1-1-2.2-1.4-3.6-1.4Z"/>
      <path id="O" class="st2" d="M71.8,25.2c-2.5,0-4.7-.9-6.5-2.6-1.8-1.7-2.7-3.9-2.7-6.4s.9-4.7,2.7-6.4c1.8-1.7,4-2.6,6.5-2.6s4.8.9,6.5,2.6,2.6,3.9,2.6,6.4-.9,4.7-2.6,6.4-3.9,2.6-6.5,2.6ZM68.1,20c1,1,2.2,1.5,3.7,1.5s2.7-.5,3.7-1.5,1.5-2.3,1.5-3.8-.5-2.8-1.5-3.8-2.2-1.6-3.7-1.6-2.7.5-3.7,1.6c-1,1-1.5,2.3-1.5,3.8s.5,2.8,1.5,3.8Z"/>
      <path id="M" class="st2" d="M91,24.5l-4.5-10v9.8c0,.3-.3.6-.6.6h-2.6c-.3,0-.6-.3-.6-.6V8.1c0-.3.3-.6.6-.6h3.7c.2,0,.4,0,.5.3l4.4,9.9c.2.5.9.5,1.1,0l4.4-9.9c0-.2.3-.3.5-.3h3.7c.3,0,.6.3.6.6v16.2c0,.3-.3.6-.6.6h-2.7c-.3,0-.6-.3-.6-.6v-9.8l-4.5,10.1c0,.2-.3.3-.5.3h-1.8c-.2,0-.4-.1-.5-.3h0Z"/>
      <path id="A" class="st2" d="M116.2,24.4l-.9-2.6h-6.8l-.9,2.6c0,.2-.3.4-.6.4h-2.8c-.4,0-.7-.4-.6-.8l5.7-16.2c0-.2.3-.4.6-.4h4c.2,0,.5.2.6.4l5.7,16.2c0,.4,0,.8-.6.8h-3c-.3,0-.5-.2-.6-.4h.2ZM114.2,18.4l-2.3-6.8-2.3,6.8h4.6Z"/>
      <path id="I" class="st2" d="M125.1,24.8h-2.8c-.3,0-.6-.3-.6-.6V8.1c0-.3.3-.6.6-.6h2.8c.3,0,.6.3.6.6v16.2c0,.3-.3.6-.6.6h0Z"/>
      <path id="N" class="st2" d="M138.4,24.6l-6.8-10.7v10.4c0,.3-.3.6-.6.6h-2.6c-.3,0-.6-.3-.6-.6V8.1c0-.3.3-.6.6-.6h3.4c.2,0,.4,0,.5.3l6.8,10.7v-10.4c0-.3.3-.6.6-.6h2.6c.3,0,.6.3.6.6v16.2c0,.3-.3.6-.6.6h-3.4c-.2,0-.4-.1-.5-.3Z"/>
    </g>
  </g>
  <g id="logo1">
    <g id="D1">
      <line class="st0" x1="3.5" y1="25.3" x2="3.5" y2="7"/>
      <path class="st2" d="M7,25.3h-3.5c-1.9,0-3.5-1.6-3.5-3.5v-11.4c0-1.9,1.6-3.5,3.5-3.5h3.5v18.4Z"/>
    </g>
    <path id="D2" class="st1" d="M20.8,32.3h-10.3c-1.9,0-3.5-1.6-3.5-3.5v-3.5h13.9c4.9,0,9.1-3.7,9.5-8.5s-3.9-9.8-9.2-9.8H7v-3.5C7,1.6,8.6,0,10.5,0h10.7C30.4,0,37.8,7.7,37.4,17s-7.9,15.4-16.6,15.4h0Z"/>
  </g>
</svg>